<?xml version="1.0" encoding="utf-8"?>
<!-- Generator: Adobe Illustrator 23.0.6, SVG Export Plug-In . SVG Version: 6.00 Build 0)  -->
<svg version="1.1" id="Layer_1" xmlns="http://www.w3.org/2000/svg" xmlns:xlink="http://www.w3.org/1999/xlink" x="0px" y="0px"
	 viewBox="0 0 19.7 19.7" enable-background="new 0 0 19.7 19.7" xml:space="preserve">
<path d="M18.6,2.6h-1.9V1.1c0-0.6-0.5-1.1-1.1-1.1c-0.6,0-1.1,0.5-1.1,1.1l0,0v1.5H5.3V1.1C5.3,0.5,4.8,0,4.2,0
	C3.5,0,3.1,0.5,3.1,1.1c0,0,0,0,0,0v1.5h-2C0.5,2.6,0,3.1,0,3.7c0,0,0,0,0,0v14.9c0,0.6,0.5,1.1,1.1,1.1c0,0,0,0,0,0h17.5
	c0.6,0,1.1-0.5,1.1-1.1c0,0,0,0,0,0V3.7C19.7,3.1,19.2,2.6,18.6,2.6z M8,12.1V8.4h3.8v3.6L8,12.1z M11.8,14v3.5H8V14H11.8z M2.2,8.4
	H6v3.6H2.2V8.4z M13.8,8.4h3.7v3.6h-3.7V8.4z M17.5,4.8v1.6H2.2V4.8H17.5z M2.2,14H6v3.5H2.2V14z M13.8,17.5V14h3.7v3.5H13.8z"/>
</svg>
