<?xml version="1.0" encoding="utf-8"?>
<!-- Generator: Adobe Illustrator 19.0.0, SVG Export Plug-In . SVG Version: 6.00 Build 0)  -->
<svg version="1.1" id="Bold" xmlns="http://www.w3.org/2000/svg" xmlns:xlink="http://www.w3.org/1999/xlink" x="0px" y="0px"
	 viewBox="-49 141 512 512" style="enable-background:new -49 141 512 512;" xml:space="preserve">
<style type="text/css">
	.st0{fill:#FFFFFF;}
</style>
<path class="st0" d="M406.3,548L406.3,548l0.1,0V398.7c0-73-15.7-129.3-101.1-129.3c-41,0-68.6,22.5-79.8,43.9h-1.2v-37.1h-80.9V548
	h84.3V413.4c0-35.4,6.7-69.7,50.6-69.7c43.2,0,43.9,40.4,43.9,72V548H406.3z"/>
<path class="st0" d="M6.1,276.3h84.4V548H6.1L6.1,276.3z"/>
<path class="st0" d="M48.2,141c-27,0-48.9,21.9-48.9,48.9s21.9,49.3,48.9,49.3s48.9-22.4,48.9-49.3C97.1,162.9,75.2,141,48.2,141z"
	/>
</svg>
