<svg xmlns="http://www.w3.org/2000/svg" width="20.864" height="17" viewBox="0 0 20.864 17"><defs><style>.a{fill:#fff!important;}</style></defs><g transform="translate(0 -48)"><g transform="translate(0 48)"><path class="a" d="M20.864,50.013a8.9,8.9,0,0,1-2.465.677,4.263,4.263,0,0,0,1.882-2.371,8.533,8.533,0,0,1-2.712,1.038,4.275,4.275,0,0,0-7.4,2.933,4.429,4.429,0,0,0,.1.978,12.1,12.1,0,0,1-8.816-4.487,4.3,4.3,0,0,0,1.314,5.733,4.215,4.215,0,0,1-1.933-.528v.047a4.306,4.306,0,0,0,3.427,4.215,4.258,4.258,0,0,1-1.121.141,3.771,3.771,0,0,1-.81-.073,4.32,4.32,0,0,0,4,2.988,8.579,8.579,0,0,1-5.3,1.829A7.989,7.989,0,0,1,0,63.075,12.017,12.017,0,0,0,6.562,65,12.109,12.109,0,0,0,18.736,52.794c0-.19-.007-.373-.016-.554A8.546,8.546,0,0,0,20.864,50.013Z" transform="translate(0 -48)"/></g></g></svg>
