<svg xmlns="http://www.w3.org/2000/svg" width="17.546" height="9.592" viewBox="0 0 17.546 9.592"><defs><style>.a{fill:#ff0202;}.b{fill:#26a69a;}</style></defs><g transform="translate(-10.5 -27.5)"><g transform="translate(10.5 27.5)"><path class="a" d="M21.519,37.092H11.88a1.383,1.383,0,0,1-1.38-1.38V28.88a1.383,1.383,0,0,1,1.38-1.38H21.5a1.383,1.383,0,0,1,1.38,1.38v6.808A1.368,1.368,0,0,1,21.519,37.092Z" transform="translate(-10.5 -27.5)"/><path class="b" d="M67.5,31.9v4.164l3.86,2.176a.233.233,0,0,0,.351-.211V29.934a.24.24,0,0,0-.351-.211Z" transform="translate(-54.165 -29.186)"/></g></g></svg>
