<svg xmlns="http://www.w3.org/2000/svg" xmlns:xlink="http://www.w3.org/1999/xlink" width="1609.368" height="271.478" viewBox="0 0 1609.368 271.478"><defs><style>.a,.b{opacity:0.44;}.a{fill:url(#a);}.b{fill:url(#b);}.c{fill:url(#c);}</style><linearGradient id="a" x1="0.005" y1="0.644" x2="0.99" y2="0.644" gradientUnits="objectBoundingBox"><stop offset="0" stop-color="#ff5800"/><stop offset="0.999" stop-color="#9e3adf"/></linearGradient><linearGradient id="b" x1="-0.027" y1="7.548" x2="0.965" y2="7.548" xlink:href="#a"/><linearGradient id="c" x1="0.001" y1="0.45" x2="0.996" y2="0.45" xlink:href="#a"/></defs><g transform="translate(7469.55 -2823.227)"><path class="a" d="M-5925.085,3135.051s-.757,101.706-305.09,83.846c-177.678-10.427-375.877-89.841-529.749-50.567s-298.071,60.79-525.31,7.347c-130.672-30.732-183.974,43.967-183.974,43.967l2.029-121.331,1055.341,41.018Z" transform="translate(-0.153 -126.297)"/><path class="b" d="M-7466.46,2955.168s96.683-99.935,401.017-81.931c177.678,10.51,293.1,102.633,446.972,63.044s147.656-103.516,550.93-29.89c127.933,23.358,208.317-92.077,208.317-92.077V2986.4l-1121.905-15.208Z" transform="translate(-1.112 8.913)"/><path class="c" d="M-6219.233,2929.475c-293.06-58.362-309,115.358-759.4,25.2-227.86-45.61-487.59,4.077-487.59,4.077l-3.328,96.732s117.426-68.369,410.485-10.007,218.022-88.673,668.425,1.483c227.86,45.61,530.3,3.335,530.3,3.335l.155-129.437S-5926.173,2987.837-6219.233,2929.475Z" transform="translate(0 -8.166)"/></g></svg>